# xmcd CD database file
#
# Track frame offsets:
#	150
#	21631
#	40644
#	59807
#	73318
#	94189
#	112521
#	133828
#	154194
#	175838
#
# Disc length: 2574 seconds
#
# Revision: 3
# Processed by: cddbd v1.5.2PL0 Copyright (c) Steve Scherf et al.
# Submitted via: CDex 1.70beta3
#
DISCID=8c0a0c0a
DTITLE=大滝詠一 - DEBUT AGAIN
DYEAR=2016
DGENRE=J-Pop
TTITLE0=熱き心に
TTITLE1=うれしい予感
TTITLE2=快盗ルビイ
TTITLE3=星空のサーカス
TTITLE4=Tシャツに口紅
TTITLE5=探偵物語
TTITLE6=すこしだけやさしく
TTITLE7=夏のリビエラ -Summer Night in Riviera-
TTITLE8=風立ちぬ
TTITLE9=夢で逢えたら (Strings Mix)
EXTD=YEAR: 2016
EXTT0=
EXTT1=
EXTT2=
EXTT3=
EXTT4=
EXTT5=
EXTT6=
EXTT7=
EXTT8=
EXTT9=
PLAYORDER=
